<svg width="12" height="15" viewBox="0 0 12 15" fill="none" xmlns="http://www.w3.org/2000/svg">
<path d="M3.33341 6.16658H8.66675M3.33341 11.4999H8.66675M3.33341 8.83325H6.00008M0.666748 13.7666V1.23325C0.666748 1.12717 0.708891 1.02542 0.783905 0.950409C0.85892 0.875395 0.960661 0.833252 1.06675 0.833252H8.83475C8.9408 0.833345 9.04247 0.875549 9.11742 0.950585L11.2161 3.04925C11.2534 3.08652 11.283 3.1308 11.3031 3.17954C11.3232 3.22828 11.3335 3.28052 11.3334 3.33325V13.7666C11.3334 13.8191 11.3231 13.8711 11.303 13.9197C11.2829 13.9682 11.2534 14.0123 11.2163 14.0494C11.1791 14.0866 11.135 14.116 11.0865 14.1361C11.038 14.1562 10.9859 14.1666 10.9334 14.1666H1.06675C1.01422 14.1666 0.962205 14.1562 0.913675 14.1361C0.865144 14.116 0.821049 14.0866 0.783905 14.0494C0.746762 14.0123 0.717298 13.9682 0.697196 13.9197C0.677094 13.8711 0.666748 13.8191 0.666748 13.7666Z" stroke="#4E202A" stroke-linecap="round" stroke-linejoin="round"/>
<path d="M8.66675 0.833252V3.09992C8.66675 3.20601 8.70889 3.30775 8.78391 3.38276C8.85892 3.45778 8.96066 3.49992 9.06675 3.49992H11.3334" stroke="#4E202A" stroke-linecap="round" stroke-linejoin="round"/>
</svg>
