<svg width="16" height="17" viewBox="0 0 16 17" fill="none" xmlns="http://www.w3.org/2000/svg">
<path d="M6.73562 11.871C6.71124 11.9678 6.10187 14.2497 2.74999 14.2497C2.61739 14.2497 2.49021 14.197 2.39644 14.1033C2.30267 14.0095 2.24999 13.8823 2.24999 13.7497C2.24999 10.3978 4.53187 9.78845 4.62874 9.76408C4.75746 9.73192 4.89367 9.75221 5.00742 9.82049C5.12118 9.88876 5.20315 9.99943 5.23531 10.1281C5.26746 10.2569 5.24717 10.3931 5.1789 10.5068C5.11062 10.6206 4.99996 10.7025 4.87124 10.7347C4.81499 10.7503 3.46999 11.1435 3.27374 13.226C5.35624 13.0297 5.74999 11.6872 5.76624 11.6247C5.7994 11.4962 5.88226 11.386 5.99659 11.3186C6.11093 11.2511 6.24738 11.2319 6.37593 11.265C6.50448 11.2982 6.61459 11.381 6.68204 11.4954C6.7495 11.6097 6.76877 11.7462 6.73562 11.8747V11.871ZM12.5481 7.65845L12.25 7.95658V11.6022C12.2507 11.734 12.2253 11.8647 12.175 11.9866C12.1248 12.1085 12.0509 12.2192 11.9575 12.3122L9.81249 14.456C9.71999 14.5491 9.60996 14.623 9.48874 14.6735C9.36753 14.7239 9.23753 14.7498 9.10624 14.7497C8.99789 14.7497 8.89026 14.7322 8.78749 14.6978C8.61105 14.6395 8.45445 14.5329 8.33539 14.3902C8.21633 14.2475 8.13955 14.0744 8.11374 13.8903L7.77812 11.4847L5.01499 8.72158L2.61062 8.38595C2.42633 8.36011 2.25291 8.28335 2.10987 8.16432C1.96683 8.04529 1.85984 7.88871 1.80093 7.71219C1.74203 7.53567 1.73355 7.34621 1.77644 7.16513C1.81934 6.98406 1.91191 6.81854 2.04374 6.6872L4.18749 4.5422C4.28054 4.44882 4.39123 4.37487 4.51312 4.32465C4.63501 4.27444 4.76567 4.24896 4.89749 4.2497H8.54312L8.84124 3.95158C10.5087 2.2847 12.5181 2.21283 13.3044 2.2597C13.5482 2.27452 13.7781 2.37805 13.9508 2.55076C14.1235 2.72346 14.2271 2.95341 14.2419 3.1972C14.2875 3.98158 14.2156 5.99095 12.5487 7.65845H12.5481ZM2.74999 7.39595L5.07187 7.7197L7.54312 5.2497H4.89749L2.74999 7.39595ZM5.95749 8.2497L8.24999 10.5422L11.8406 6.95158C12.3245 6.47095 12.6999 5.89232 12.9416 5.25456C13.1833 4.6168 13.2857 3.93469 13.2419 3.25408C12.5616 3.21189 11.8802 3.31535 11.2431 3.55753C10.606 3.79971 10.0279 4.17504 9.54749 4.65845L5.95749 8.2497ZM11.25 8.95658L8.77937 11.4272L9.10437 13.7497L11.25 11.6022V8.95658Z" fill="#4E202A"/>
</svg>
