<svg width="26" height="26" viewBox="0 0 26 26" fill="none" xmlns="http://www.w3.org/2000/svg">
<g clip-path="url(#clip0_798_2430)">
<path d="M16.7801 19.0701C14.6906 20.6933 12.061 21.459 9.4268 21.2114C6.79256 20.9638 4.35173 19.7215 2.6013 17.7375C0.850861 15.7534 -0.0775591 13.1768 0.00507872 10.5322C0.0877166 7.88766 1.1752 5.37402 3.04609 3.50313C4.91699 1.63223 7.43063 0.544748 10.0752 0.46211C12.7197 0.379472 15.2964 1.30789 17.2804 3.05833C19.2645 4.80876 20.5068 7.2496 20.7544 9.88383C21.002 12.5181 20.2362 15.1476 18.6131 17.2371L25.5681 24.1661L23.7221 26.0121L16.7931 19.0701H16.7801ZM10.4101 18.6541C11.4344 18.6541 12.4487 18.4524 13.395 18.0604C14.3414 17.6684 15.2012 17.0938 15.9255 16.3695C16.6498 15.6452 17.2244 14.7854 17.6163 13.839C18.0083 12.8927 18.2101 11.8784 18.2101 10.8541C18.2101 9.8298 18.0083 8.81552 17.6163 7.86918C17.2244 6.92284 16.6498 6.06298 15.9255 5.33868C15.2012 4.61438 14.3414 4.03984 13.395 3.64785C12.4487 3.25587 11.4344 3.05411 10.4101 3.05411C8.34139 3.05411 6.35743 3.8759 4.89465 5.33868C3.43186 6.80146 2.61008 8.78542 2.61008 10.8541C2.61008 12.9228 3.43186 14.9068 4.89465 16.3695C6.35743 17.8323 8.34139 18.6541 10.4101 18.6541Z" fill="#AB0909"/>
</g>
<defs>
<clipPath id="clip0_798_2430">
<rect width="26" height="26" fill="white"/>
</clipPath>
</defs>
</svg>
