<svg width="33" height="33" viewBox="0 0 33 33" fill="none" xmlns="http://www.w3.org/2000/svg">
<path d="M16.4999 2.78589C25.084 2.78589 32.0427 8.16693 32.0427 14.8066C32.0427 21.4448 25.084 26.8258 16.4999 26.8258C15.6451 26.8263 14.7912 26.7723 13.9435 26.6643L7.41842 30.8983C6.6768 31.2875 6.41479 31.2449 6.71973 30.2918L8.04013 24.8902C3.77695 22.746 0.957031 19.0303 0.957031 14.8066C0.957031 8.1684 7.91579 2.78589 16.4999 2.78589ZM25.2439 14.623L27.4199 12.5317C27.5454 12.4023 27.6155 12.2296 27.6152 12.05C27.615 11.8704 27.5446 11.6979 27.4187 11.5689C27.2928 11.4398 27.1214 11.3642 26.9404 11.3581C26.7595 11.352 26.5833 11.4157 26.4488 11.536L23.5948 14.2764V12.0118C23.5948 11.8279 23.5212 11.6516 23.3902 11.5216C23.2592 11.3916 23.0814 11.3186 22.8961 11.3186C22.7108 11.3186 22.5331 11.3916 22.4021 11.5216C22.2711 11.6516 22.1975 11.8279 22.1975 12.0118V15.7671C22.1713 15.8742 22.1713 15.986 22.1975 16.0931V18.2065C22.1975 18.3903 22.2711 18.5666 22.4021 18.6966C22.5331 18.8266 22.7108 18.8996 22.8961 18.8996C23.0814 18.8996 23.2592 18.8266 23.3902 18.6966C23.5212 18.5666 23.5948 18.3903 23.5948 18.2065V16.2047L24.2269 15.5982L26.3407 18.5839C26.3935 18.6584 26.4606 18.7219 26.5381 18.7708C26.6156 18.8196 26.702 18.8528 26.7925 18.8685C26.8829 18.8842 26.9756 18.882 27.0652 18.8622C27.1548 18.8423 27.2396 18.8051 27.3148 18.7528C27.3899 18.7004 27.4539 18.6339 27.5031 18.557C27.5523 18.4801 27.5858 18.3943 27.6016 18.3046C27.6174 18.2148 27.6152 18.1229 27.5952 18.034C27.5752 17.9451 27.5378 17.861 27.485 17.7864L25.2439 14.6215V14.623ZM20.8652 17.4486H18.704V12.0338C18.6957 11.8557 18.6186 11.6876 18.4886 11.5644C18.3586 11.4412 18.1858 11.3725 18.0061 11.3725C17.8263 11.3725 17.6535 11.4412 17.5235 11.5644C17.3935 11.6876 17.3164 11.8557 17.3081 12.0338V18.1418C17.3081 18.5237 17.619 18.835 18.0053 18.835H20.8652C21.0505 18.835 21.2282 18.762 21.3593 18.632C21.4903 18.502 21.5639 18.3257 21.5639 18.1418C21.5639 17.958 21.4903 17.7817 21.3593 17.6517C21.2282 17.5217 21.0505 17.4486 20.8652 17.4486ZM12.1953 15.8449L13.2255 13.338L14.1699 15.8449H12.1953ZM15.93 16.5616L15.9329 16.5381C15.9326 16.3635 15.8654 16.1955 15.7449 16.0681L14.1966 11.956C14.1317 11.76 14.008 11.5884 13.8422 11.464C13.6763 11.3396 13.4762 11.2684 13.2685 11.2599C13.0592 11.2589 12.8546 11.3213 12.682 11.4385C12.5093 11.5558 12.3767 11.7225 12.3018 11.9163L9.8431 17.901C9.8084 17.9853 9.79078 18.0755 9.79123 18.1665C9.79168 18.2576 9.8102 18.3476 9.84573 18.4316C9.88127 18.5155 9.93311 18.5917 9.99832 18.6557C10.0635 18.7198 10.1408 18.7705 10.2258 18.8049C10.3107 18.8393 10.4017 18.8568 10.4934 18.8564C10.5852 18.8559 10.676 18.8376 10.7606 18.8023C10.8452 18.7671 10.9219 18.7156 10.9865 18.6509C11.0511 18.5862 11.1022 18.5096 11.1369 18.4253L11.6254 17.2313H14.6895L15.1321 18.4062C15.1622 18.494 15.2098 18.5749 15.272 18.6442C15.3341 18.7135 15.4097 18.7696 15.4942 18.8094C15.5787 18.8491 15.6703 18.8717 15.7637 18.8756C15.8571 18.8796 15.9504 18.8649 16.038 18.8325C16.1256 18.8001 16.2057 18.7505 16.2736 18.6868C16.3416 18.623 16.3959 18.5464 16.4335 18.4615C16.471 18.3765 16.491 18.285 16.4923 18.1922C16.4935 18.0995 16.476 18.0074 16.4407 17.9215L15.93 16.5616ZM11.0125 12.0412C11.0125 11.8576 10.9391 11.6815 10.8084 11.5515C10.6777 11.4216 10.5004 11.3484 10.3153 11.348H5.51183C5.32652 11.348 5.14881 11.421 5.01778 11.551C4.88675 11.681 4.81314 11.8573 4.81314 12.0412C4.81314 12.225 4.88675 12.4013 5.01778 12.5313C5.14881 12.6613 5.32652 12.7344 5.51183 12.7344H7.22894V18.2211C7.22894 18.405 7.30256 18.5813 7.43359 18.7113C7.56461 18.8413 7.74233 18.9143 7.92763 18.9143C8.11294 18.9143 8.29065 18.8413 8.42168 18.7113C8.55271 18.5813 8.62632 18.405 8.62632 18.2211V12.7344H10.3138C10.7002 12.7344 11.0125 12.423 11.0125 12.0412Z" fill="black"/>
</svg>
