<svg width="30" height="30" viewBox="0 0 30 30" fill="none" xmlns="http://www.w3.org/2000/svg">
<rect width="30" height="30" rx="15" fill="#F4F4F4"/>
<path d="M17.9282 8.51321L16.6033 9.83799L20.1619 13.3963L21.4867 12.0715C22.1711 11.3872 22.1711 10.2787 21.4867 9.59438L20.4082 8.51321C19.7239 7.82893 18.6153 7.82893 17.9309 8.51321H17.9282ZM15.9847 10.4566L9.6039 16.8396C9.31921 17.1243 9.11118 17.4773 8.99621 17.8633L8.02718 21.1561C7.95875 21.3887 8.02171 21.6378 8.19142 21.8075C8.36114 21.9772 8.61024 22.0402 8.84018 21.9745L12.1332 21.0055C12.5192 20.8906 12.8723 20.6825 13.157 20.3979L19.5432 14.0149L15.9847 10.4566Z" fill="black"/>
</svg>
