<svg width="50" height="50" viewBox="0 0 50 50" fill="none" xmlns="http://www.w3.org/2000/svg">
<rect y="0.5" width="50" height="49" rx="24.5" fill="#F4F4F4"/>
<path d="M24.9182 13.5C26.4361 13.5 27.8919 14.1146 28.9652 15.2085C30.0385 16.3025 30.6415 17.7862 30.6415 19.3333C30.6415 20.8804 30.0385 22.3642 28.9652 23.4581C27.8919 24.5521 26.4361 25.1667 24.9182 25.1667C23.4003 25.1667 21.9446 24.5521 20.8713 23.4581C19.7979 22.3642 19.195 20.8804 19.195 19.3333C19.195 17.7862 19.7979 16.3025 20.8713 15.2085C21.9446 14.1146 23.4003 13.5 24.9182 13.5ZM24.9182 28.0833C31.2424 28.0833 36.3648 30.6937 36.3648 33.9167V36.8333H13.4717V33.9167C13.4717 30.6937 18.594 28.0833 24.9182 28.0833Z" fill="#AB0909"/>
</svg>
