<svg width="49" height="49" viewBox="0 0 49 49" fill="none" xmlns="http://www.w3.org/2000/svg">
<rect width="49" height="49" rx="24.5" fill="#F4F4F4"/>
<path d="M25 30.5238C25.5967 30.5238 26.169 30.293 26.591 29.8822C27.0129 29.4714 27.25 28.9143 27.25 28.3333C27.25 27.7524 27.0129 27.1952 26.591 26.7844C26.169 26.3736 25.5967 26.1429 25 26.1429C24.4033 26.1429 23.831 26.3736 23.409 26.7844C22.9871 27.1952 22.75 27.7524 22.75 28.3333C22.75 28.9143 22.9871 29.4714 23.409 29.8822C23.831 30.293 24.4033 30.5238 25 30.5238ZM31.75 20.6667C32.3467 20.6667 32.919 20.8974 33.341 21.3082C33.7629 21.719 34 22.2762 34 22.8571V33.8095C34 34.3905 33.7629 34.9476 33.341 35.3584C32.919 35.7692 32.3467 36 31.75 36H18.25C17.6533 36 17.081 35.7692 16.659 35.3584C16.2371 34.9476 16 34.3905 16 33.8095V22.8571C16 22.2762 16.2371 21.719 16.659 21.3082C17.081 20.8974 17.6533 20.6667 18.25 20.6667H19.375V18.4762C19.375 17.0238 19.9676 15.6309 21.0225 14.6039C22.0774 13.577 23.5082 13 25 13C25.7387 13 26.4701 13.1416 27.1526 13.4169C27.8351 13.6921 28.4551 14.0954 28.9775 14.6039C29.4998 15.1125 29.9141 15.7161 30.1968 16.3805C30.4795 17.0449 30.625 17.757 30.625 18.4762V20.6667H31.75ZM25 15.1905C24.1049 15.1905 23.2464 15.5366 22.6135 16.1528C21.9806 16.769 21.625 17.6048 21.625 18.4762V20.6667H28.375V18.4762C28.375 17.6048 28.0194 16.769 27.3865 16.1528C26.7536 15.5366 25.8951 15.1905 25 15.1905Z" fill="#AB0909"/>
</svg>
