{
	"asset":{
		"version":"2.0",
		"generator":"Created using the official Cinema 4D glTF Exporter 1.000x284978"
	},
	"bufferViews":[{
		"buffer":0,
		"byteOffset":0,
		"target":34963,
		"byteLength":12
	},
	{
		"buffer":0,
		"byteOffset":12,
		"target":34962,
		"byteLength":128,
		"byteStride":32
	},
	{
		"buffer":1,
		"byteOffset":0,
		"target":34963,
		"byteLength":12
	},
	{
		"buffer":1,
		"byteOffset":12,
		"target":34962,
		"byteLength":128,
		"byteStride":32
	},
	{
		"buffer":2,
		"byteOffset":0,
		"target":34963,
		"byteLength":77400
	},
	{
		"buffer":2,
		"byteOffset":77400,
		"target":34962,
		"byteLength":222208,
		"byteStride":32
	},
	{
		"buffer":3,
		"byteOffset":0,
		"byteLength":32
	},
	{
		"buffer":3,
		"byteOffset":32,
		"byteLength":60
	},
	{
		"buffer":3,
		"byteOffset":92,
		"byteLength":32
	},
	{
		"buffer":4,
		"byteOffset":0,
		"target":34963,
		"byteLength":103200
	},
	{
		"buffer":4,
		"byteOffset":103200,
		"target":34962,
		"byteLength":295808,
		"byteStride":32
	},
	{
		"buffer":5,
		"byteOffset":0,
		"byteLength":48
	},
	{
		"buffer":6,
		"byteOffset":0,
		"target":34963,
		"byteLength":129000
	},
	{
		"buffer":6,
		"byteOffset":129000,
		"target":34962,
		"byteLength":369408,
		"byteStride":32
	},
	{
		"buffer":7,
		"byteOffset":0,
		"byteLength":48
	},
	{
		"buffer":7,
		"byteOffset":48,
		"byteLength":40
	},
	{
		"buffer":7,
		"byteOffset":88,
		"byteLength":32
	}],
	"scenes":[{
		"nodes":[0,
		1,
		2,
		3]
	}],
	"nodes":[{
		"name":"OctaneCamera",
		"scale":[1.0,
		1.0,
		1.0],
		"camera":0,
		"translation":[-117.6917495727539,
		515.6491088867188,
		866.796142578125],
		"rotation":[-0.2106291651725769,
		-0.10414030402898789,
		-0.022572871297597886,
		0.9717410206794739]
	},
	{
		"mesh":0,
		"name":"Plane",
		"translation":[-200.4702606201172,
		-29.875896453857423,
		16.311784744262697],
		"rotation":[0.0,
		-0.26891982555389407,
		0.0,
		-0.9631625413894653],
		"scale":[1.0,
		1.0,
		1.0]
	},
	{
		"name":"main",
		"translation":[-47.19614791870117,
		219.95175170898438,
		269.3974304199219],
		"rotation":[-0.14040957391262055,
		0.2634090185165405,
		0.07447898387908936,
		0.9515007734298706],
		"scale":[1.0,
		1.0,
		1.0],
		"children":[4,
		5,
		6]
	},
	{
		"mesh":1,
		"name":"Plane.1",
		"translation":[0.0,
		275.95977783203127,
		-1389.0235595703126],
		"rotation":[-0.7071067690849304,
		0.0,
		0.0,
		-0.7071067690849304],
		"scale":[1.0,
		1.0,
		1.0]
	},
	{
		"mesh":2,
		"name":"Tube.3",
		"translation":[-54.95414352416992,
		-434.2985534667969,
		-8.0436429977417],
		"rotation":[0.3501777648925781,
		-0.4022296071052551,
		-0.2169259637594223,
		0.8176368474960327],
		"scale":[1.0,
		1.0,
		1.0]
	},
	{
		"mesh":3,
		"name":"Tube",
		"translation":[-141.3511505126953,
		-406.02423095703127,
		39.423709869384769],
		"rotation":[0.9525241255760193,
		-0.07889772951602936,
		0.2547129988670349,
		-0.14694960415363313],
		"scale":[1.0,
		1.0,
		1.0]
	},
	{
		"mesh":4,
		"name":"Tube.1",
		"translation":[-185.6947784423828,
		-434.5552673339844,
		-39.17872619628906],
		"rotation":[0.9889489412307739,
		-0.02806362882256508,
		-0.02031143754720688,
		-0.14415234327316285],
		"scale":[1.0,
		1.0,
		1.0]
	}],
	"meshes":[{
		"name":"Plane",
		"primitives":[{
			"attributes":{
				"POSITION":1,
				"NORMAL":2,
				"TEXCOORD_0":3
			},
			"indices":0,
			"material":0
		}]
	},
	{
		"name":"Plane.1",
		"primitives":[{
			"attributes":{
				"POSITION":5,
				"NORMAL":6,
				"TEXCOORD_0":7
			},
			"indices":4,
			"material":1
		}]
	},
	{
		"name":"Tube.3",
		"primitives":[{
			"attributes":{
				"POSITION":9,
				"NORMAL":10,
				"TEXCOORD_0":11
			},
			"indices":8,
			"material":2
		}]
	},
	{
		"name":"Tube",
		"primitives":[{
			"attributes":{
				"POSITION":19,
				"NORMAL":20,
				"TEXCOORD_0":21
			},
			"indices":18,
			"material":3
		}]
	},
	{
		"name":"Tube.1",
		"primitives":[{
			"attributes":{
				"POSITION":25,
				"NORMAL":26,
				"TEXCOORD_0":27
			},
			"indices":24,
			"material":4
		}]
	}],
	"animations":[{
		"samplers":[{
			"input":12,
			"interpolation":"LINEAR",
			"output":13
		},
		{
			"input":14,
			"interpolation":"LINEAR",
			"output":15
		},
		{
			"input":16,
			"interpolation":"LINEAR",
			"output":17
		},
		{
			"input":22,
			"interpolation":"LINEAR",
			"output":23
		},
		{
			"input":28,
			"interpolation":"LINEAR",
			"output":29
		},
		{
			"input":30,
			"interpolation":"LINEAR",
			"output":31
		},
		{
			"input":32,
			"interpolation":"LINEAR",
			"output":33
		}],
		"channels":[{
			"sampler":0,
			"target":{
				"node":4,
				"path":"translation"
			}
		},
		{
			"sampler":1,
			"target":{
				"node":4,
				"path":"rotation"
			}
		},
		{
			"sampler":2,
			"target":{
				"node":4,
				"path":"scale"
			}
		},
		{
			"sampler":3,
			"target":{
				"node":5,
				"path":"translation"
			}
		},
		{
			"sampler":4,
			"target":{
				"node":6,
				"path":"translation"
			}
		},
		{
			"sampler":5,
			"target":{
				"node":6,
				"path":"rotation"
			}
		},
		{
			"sampler":6,
			"target":{
				"node":6,
				"path":"scale"
			}
		}]
	}],
	"cameras":[{
		"type":"perspective",
		"perspective":{
			"znear":0.009999999776482582,
			"zfar":10000000000.0,
			"aspectRatio":0.75,
			"yfov":1.2350385189056397
		}
	}],
	"accessors":[{
		"bufferView":0,
		"type":"SCALAR",
		"componentType":5123,
		"count":6,
		"byteOffset":0,
		"min":[0],
		"max":[3]
	},
	{
		"bufferView":1,
		"type":"VEC3",
		"componentType":5126,
		"count":4,
		"byteOffset":0,
		"min":[-6342.52197265625,
		0.0,
		-2500.0],
		"max":[6342.52197265625,
		0.0,
		2500.0]
	},
	{
		"bufferView":1,
		"type":"VEC3",
		"componentType":5126,
		"count":4,
		"byteOffset":12,
		"min":[0.0,
		1.0,
		0.0],
		"max":[0.0,
		1.0,
		0.0]
	},
	{
		"bufferView":1,
		"type":"VEC2",
		"componentType":5126,
		"count":4,
		"byteOffset":24,
		"min":[0.0,
		0.0],
		"max":[1.0,
		1.0]
	},
	{
		"bufferView":2,
		"type":"SCALAR",
		"componentType":5123,
		"count":6,
		"byteOffset":0,
		"min":[0],
		"max":[3]
	},
	{
		"bufferView":3,
		"type":"VEC3",
		"componentType":5126,
		"count":4,
		"byteOffset":0,
		"min":[-4325.677734375,
		0.0,
		-1862.569091796875],
		"max":[4325.677734375,
		0.0,
		1862.569091796875]
	},
	{
		"bufferView":3,
		"type":"VEC3",
		"componentType":5126,
		"count":4,
		"byteOffset":12,
		"min":[0.0,
		1.0,
		0.0],
		"max":[0.0,
		1.0,
		0.0]
	},
	{
		"bufferView":3,
		"type":"VEC2",
		"componentType":5126,
		"count":4,
		"byteOffset":24,
		"min":[0.0,
		0.0],
		"max":[1.0,
		1.0]
	},
	{
		"bufferView":4,
		"type":"SCALAR",
		"componentType":5123,
		"count":38700,
		"byteOffset":0,
		"min":[0],
		"max":[6943]
	},
	{
		"bufferView":5,
		"type":"VEC3",
		"componentType":5126,
		"count":6944,
		"byteOffset":0,
		"min":[-75.12999725341797,
		-203.2512969970703,
		-75.113525390625],
		"max":[75.12999725341797,
		203.2512969970703,
		75.113525390625]
	},
	{
		"bufferView":5,
		"type":"VEC3",
		"componentType":5126,
		"count":6944,
		"byteOffset":12,
		"min":[-1.0,
		-1.0,
		-0.9997807741165161],
		"max":[1.0,
		1.0,
		0.9997807741165161]
	},
	{
		"bufferView":5,
		"type":"VEC2",
		"componentType":5126,
		"count":6944,
		"byteOffset":24,
		"min":[0.0,
		0.0],
		"max":[1.0,
		1.0]
	},
	{
		"bufferView":6,
		"type":"SCALAR",
		"componentType":5126,
		"count":2,
		"byteOffset":0,
		"min":[0.0],
		"max":[5.0]
	},
	{
		"bufferView":6,
		"type":"VEC3",
		"componentType":5126,
		"count":2,
		"byteOffset":8,
		"min":[-61.438751220703128,
		-485.4654846191406,
		-32.70050048828125],
		"max":[-30.28781509399414,
		-72.20884704589844,
		100.01646423339844]
	},
	{
		"bufferView":7,
		"type":"SCALAR",
		"componentType":5126,
		"count":3,
		"byteOffset":0,
		"min":[0.0],
		"max":[5.0]
	},
	{
		"bufferView":7,
		"type":"VEC4",
		"componentType":5126,
		"count":3,
		"byteOffset":12,
		"min":[-0.7071067690849304,
		-0.002493632026016712,
		0.0,
		-0.9875087141990662],
		"max":[-0.14035139977931977,
		0.2485068142414093,
		0.07395802438259125,
		-0.7071067690849304]
	},
	{
		"bufferView":8,
		"type":"SCALAR",
		"componentType":5126,
		"count":2,
		"byteOffset":0,
		"min":[0.0],
		"max":[5.0]
	},
	{
		"bufferView":8,
		"type":"VEC3",
		"componentType":5126,
		"count":2,
		"byteOffset":8,
		"min":[1.0,
		1.0,
		1.0],
		"max":[1.0,
		1.0,
		1.0]
	},
	{
		"bufferView":9,
		"type":"SCALAR",
		"componentType":5123,
		"count":51600,
		"byteOffset":0,
		"min":[0],
		"max":[9243]
	},
	{
		"bufferView":10,
		"type":"VEC3",
		"componentType":5126,
		"count":9244,
		"byteOffset":0,
		"min":[-62.24491882324219,
		-158.4375,
		-62.24491882324219],
		"max":[62.24491882324219,
		158.4375,
		62.24491882324219]
	},
	{
		"bufferView":10,
		"type":"VEC3",
		"componentType":5126,
		"count":9244,
		"byteOffset":12,
		"min":[-1.0,
		-1.0,
		-1.0],
		"max":[1.0,
		1.0,
		1.0]
	},
	{
		"bufferView":10,
		"type":"VEC2",
		"componentType":5126,
		"count":9244,
		"byteOffset":24,
		"min":[0.0,
		0.0],
		"max":[1.0,
		1.0]
	},
	{
		"bufferView":11,
		"type":"SCALAR",
		"componentType":5126,
		"count":3,
		"byteOffset":0,
		"min":[0.0],
		"max":[5.0]
	},
	{
		"bufferView":11,
		"type":"VEC3",
		"componentType":5126,
		"count":3,
		"byteOffset":12,
		"min":[-142.24855041503907,
		-417.2573547363281,
		35.615684509277347],
		"max":[-119.56698608398438,
		-133.34349060058595,
		131.8624725341797]
	},
	{
		"bufferView":12,
		"type":"SCALAR",
		"componentType":5123,
		"count":64500,
		"byteOffset":0,
		"min":[0],
		"max":[11543]
	},
	{
		"bufferView":13,
		"type":"VEC3",
		"componentType":5126,
		"count":11544,
		"byteOffset":0,
		"min":[-62.843929290771487,
		-180.6555633544922,
		-62.838966369628909],
		"max":[62.843929290771487,
		180.6555633544922,
		62.838966369628909]
	},
	{
		"bufferView":13,
		"type":"VEC3",
		"componentType":5126,
		"count":11544,
		"byteOffset":12,
		"min":[-1.0,
		-1.0,
		-0.9999211430549622],
		"max":[1.0,
		1.0,
		0.9999211430549622]
	},
	{
		"bufferView":13,
		"type":"VEC2",
		"componentType":5126,
		"count":11544,
		"byteOffset":24,
		"min":[0.0,
		0.0],
		"max":[1.0,
		1.0]
	},
	{
		"bufferView":14,
		"type":"SCALAR",
		"componentType":5126,
		"count":3,
		"byteOffset":0,
		"min":[0.0],
		"max":[5.0]
	},
	{
		"bufferView":14,
		"type":"VEC3",
		"componentType":5126,
		"count":3,
		"byteOffset":12,
		"min":[-187.89874267578126,
		-468.9228210449219,
		-49.378334045410159],
		"max":[-163.8531494140625,
		-93.9666976928711,
		61.901206970214847]
	},
	{
		"bufferView":15,
		"type":"SCALAR",
		"componentType":5126,
		"count":2,
		"byteOffset":0,
		"min":[0.0],
		"max":[5.0]
	},
	{
		"bufferView":15,
		"type":"VEC4",
		"componentType":5126,
		"count":2,
		"byteOffset":8,
		"min":[-0.9889489412307739,
		0.02806362882256508,
		0.02031143754720688,
		0.14415234327316285],
		"max":[-0.9889489412307739,
		0.02806362882256508,
		0.02031143754720688,
		0.14415234327316285]
	},
	{
		"bufferView":16,
		"type":"SCALAR",
		"componentType":5126,
		"count":2,
		"byteOffset":0,
		"min":[0.0],
		"max":[5.0]
	},
	{
		"bufferView":16,
		"type":"VEC3",
		"componentType":5126,
		"count":2,
		"byteOffset":8,
		"min":[1.0,
		1.0,
		1.0],
		"max":[1.0,
		1.0,
		1.0]
	}],
	"buffers":[{
		"uri":"data:application/octet-stream;base64,",
		"byteLength":140
	},
	{
		"uri":"data:application/octet-stream;base64,",
		"byteLength":140
	},
	{
		"uri":"data:application/octet-stream;base64,",
		"byteLength":299608
	},
	{
		"uri":"data:application/octet-stream;base64,",
		"byteLength":124
	},
	{
		"uri":"data:application/octet-stream;base64,",
		"byteLength":399008
	},
	{
		"uri":"data:application/octet-stream;base64,",
		"byteLength":48
	},
	{
		"uri":"data:application/octet-stream;base64,",
		"byteLength":498408
	},
	{
		"uri":"data:application/octet-stream;base64,",
		"byteLength":120
	}],
	"materials":[{
		"pbrMetallicRoughness":{
			"baseColorFactor":[1.0,
			1.0,
			1.0,
			1.0],
			"metallicFactor":1.0,
			"roughnessFactor":1.0
		},
		"emissiveFactor":[0.0,
		0.0,
		0.0],
		"alphaMode":"OPAQUE",
		"doubleSided":false,
		"name":""
	},
	{
		"pbrMetallicRoughness":{
			"baseColorFactor":[1.0,
			1.0,
			1.0,
			1.0],
			"metallicFactor":1.0,
			"roughnessFactor":1.0
		},
		"emissiveFactor":[0.0,
		0.0,
		0.0],
		"alphaMode":"OPAQUE",
		"doubleSided":false,
		"name":""
	},
	{
		"pbrMetallicRoughness":{
			"baseColorFactor":[1.0,
			1.0,
			1.0,
			1.0],
			"metallicFactor":1.0,
			"roughnessFactor":1.0
		},
		"emissiveFactor":[0.0,
		0.0,
		0.0],
		"alphaMode":"OPAQUE",
		"doubleSided":false,
		"name":""
	},
	{
		"pbrMetallicRoughness":{
			"baseColorFactor":[1.0,
			1.0,
			1.0,
			1.0],
			"metallicFactor":1.0,
			"roughnessFactor":1.0
		},
		"emissiveFactor":[0.0,
		0.0,
		0.0],
		"alphaMode":"OPAQUE",
		"doubleSided":false,
		"name":""
	},
	{
		"pbrMetallicRoughness":{
			"baseColorFactor":[1.0,
			1.0,
			1.0,
			1.0],
			"metallicFactor":1.0,
			"roughnessFactor":1.0
		},
		"emissiveFactor":[0.0,
		0.0,
		0.0],
		"alphaMode":"OPAQUE",
		"doubleSided":false,
		"name":""
	}]
}