<svg width="23" height="22" viewBox="0 0 23 22" fill="none" xmlns="http://www.w3.org/2000/svg">
<path d="M11.5 2.75H5.08333C4.5971 2.75 4.13079 2.94315 3.78697 3.28697C3.44315 3.63079 3.25 4.0971 3.25 4.58333V17.4167C3.25 17.9029 3.44315 18.3692 3.78697 18.713C4.13079 19.0568 4.5971 19.25 5.08333 19.25H17.9167C18.4029 19.25 18.8692 19.0568 19.213 18.713C19.5568 18.3692 19.75 17.9029 19.75 17.4167V11" stroke="#565656" stroke-width="2" stroke-linecap="round" stroke-linejoin="round"/>
<path d="M17.3437 2.40621C17.7083 2.04154 18.2029 1.83667 18.7187 1.83667C19.2344 1.83667 19.729 2.04154 20.0937 2.40621C20.4583 2.77089 20.6632 3.26549 20.6632 3.78121C20.6632 4.29694 20.4583 4.79154 20.0937 5.15621L11.8318 13.419C11.6141 13.6365 11.3452 13.7957 11.0498 13.882L8.41626 14.652C8.33738 14.675 8.25377 14.6763 8.17417 14.656C8.09458 14.6356 8.02193 14.5942 7.96383 14.5361C7.90573 14.478 7.86432 14.4053 7.84393 14.3257C7.82354 14.2461 7.82492 14.1625 7.84792 14.0836L8.61792 11.45C8.70457 11.1549 8.86408 10.8863 9.08176 10.669L17.3437 2.40621Z" stroke="#565656" stroke-width="2" stroke-linecap="round" stroke-linejoin="round"/>
</svg>
