<svg width="50" height="50" viewBox="0 0 50 50" fill="none" xmlns="http://www.w3.org/2000/svg">
<rect width="50" height="50" rx="25" fill="#F4F4F4"/>
<path fill-rule="evenodd" clip-rule="evenodd" d="M17 19C17.5304 19 18.0391 18.7893 18.4142 18.4142C18.7893 18.0391 19 17.5304 19 17C19 16.4696 18.7893 15.9609 18.4142 15.5858C18.0391 15.2107 17.5304 15 17 15C16.4696 15 15.9609 15.2107 15.5858 15.5858C15.2107 15.9609 15 16.4696 15 17C15 17.5304 15.2107 18.0391 15.5858 18.4142C15.9609 18.7893 16.4696 19 17 19ZM18 34C18.7956 34 19.5587 33.6839 20.1213 33.1213C20.6839 32.5587 21 31.7956 21 31C21 30.2044 20.6839 29.4413 20.1213 28.8787C19.5587 28.3161 18.7956 28 18 28C17.2044 28 16.4413 28.3161 15.8787 28.8787C15.3161 29.4413 15 30.2044 15 31C15 31.7956 15.3161 32.5587 15.8787 33.1213C16.4413 33.6839 17.2044 34 18 34ZM32 35C32.7956 35 33.5587 34.6839 34.1213 34.1213C34.6839 33.5587 35 32.7956 35 32C35 31.2044 34.6839 30.4413 34.1213 29.8787C33.5587 29.3161 32.7956 29 32 29C31.2044 29 30.4413 29.3161 29.8787 29.8787C29.3161 30.4413 29 31.2044 29 32C29 32.7956 29.3161 33.5587 29.8787 34.1213C30.4413 34.6839 31.2044 35 32 35ZM24 27C25.0609 27 26.0783 26.5786 26.8284 25.8284C27.5786 25.0783 28 24.0609 28 23C28 21.9391 27.5786 20.9217 26.8284 20.1716C26.0783 19.4214 25.0609 19 24 19C22.9391 19 21.9217 19.4214 21.1716 20.1716C20.4214 20.9217 20 21.9391 20 23C20 24.0609 20.4214 25.0783 21.1716 25.8284C21.9217 26.5786 22.9391 27 24 27ZM30 19C30.5304 19 31.0391 18.7893 31.4142 18.4142C31.7893 18.0391 32 17.5304 32 17C32 16.4696 31.7893 15.9609 31.4142 15.5858C31.0391 15.2107 30.5304 15 30 15C29.4696 15 28.9609 15.2107 28.5858 15.5858C28.2107 15.9609 28 16.4696 28 17C28 17.5304 28.2107 18.0391 28.5858 18.4142C28.9609 18.7893 29.4696 19 30 19Z" fill="#AB0909" stroke="#AB0909" stroke-width="2" stroke-linecap="round" stroke-linejoin="round"/>
<path d="M18.5 18.5L20.5 20.5M28 19L27 20M30 29.75L27 26M20 28.5L22 26.5" stroke="#AB0909" stroke-width="2" stroke-linecap="round" stroke-linejoin="round"/>
</svg>
