<svg width="32" height="33" viewBox="0 0 32 33" fill="none" xmlns="http://www.w3.org/2000/svg">
<g clip-path="url(#clip0_358_3610)">
<path d="M11.1477 1.5525C7.95043 2.66167 5.19309 4.76691 3.28071 7.559C1.36833 10.3511 0.401709 13.6829 0.522836 17.0649C0.643964 20.447 1.84645 23.701 3.95367 26.3492C6.06089 28.9973 8.96178 30.8999 12.2302 31.7775C14.88 32.4612 17.6563 32.4913 20.3202 31.865C22.7335 31.3229 24.9647 30.1634 26.7952 28.5C28.7004 26.7159 30.0833 24.4462 30.7952 21.935C31.569 19.2042 31.7067 16.3323 31.1977 13.54H16.3177V19.7125H24.9352C24.763 20.697 24.3939 21.6366 23.8501 22.4751C23.3063 23.3136 22.5989 24.0338 21.7702 24.5925C20.7179 25.2886 19.5317 25.7569 18.2877 25.9675C17.0401 26.1995 15.7604 26.1995 14.5127 25.9675C13.2482 25.706 12.052 25.1841 11.0002 24.435C9.3106 23.239 8.04192 21.5398 7.37523 19.58C6.69727 17.5835 6.69727 15.419 7.37523 13.4225C7.8498 12.023 8.63431 10.7488 9.67023 9.69499C10.8557 8.46686 12.3566 7.58899 14.0081 7.15768C15.6597 6.72638 17.3981 6.75832 19.0327 7.24999C20.3097 7.64197 21.4774 8.32684 22.4427 9.24999C23.4144 8.28333 24.3844 7.31416 25.3527 6.34249C25.8527 5.81999 26.3977 5.32249 26.8902 4.78749C25.4166 3.41619 23.6869 2.34914 21.8002 1.6475C18.3645 0.39997 14.6052 0.366444 11.1477 1.5525Z" fill="white"/>
<path d="M11.1479 1.55249C14.6051 0.365632 18.3644 0.398275 21.8004 1.64499C23.6875 2.3514 25.4164 3.42359 26.8879 4.79999C26.3879 5.33499 25.8604 5.83499 25.3504 6.35499C24.3804 7.32332 23.4113 8.28832 22.4429 9.24999C21.4775 8.32683 20.3099 7.64197 19.0329 7.24999C17.3989 6.75659 15.6605 6.72281 14.0085 7.15235C12.3565 7.58188 10.8547 8.45814 9.66793 9.68499C8.63201 10.7388 7.84749 12.013 7.37293 13.4125L2.19043 9.39999C4.04545 5.72139 7.2573 2.90755 11.1479 1.55249Z" fill="#E33629"/>
<path d="M0.814876 13.3749C1.09343 11.9944 1.55588 10.6575 2.18988 9.3999L7.37238 13.4224C6.69441 15.4189 6.69441 17.5834 7.37238 19.5799C5.64571 20.9132 3.91821 22.2532 2.18988 23.5999C0.602752 20.4407 0.118707 16.8412 0.814876 13.3749Z" fill="#F8BD00"/>
<path d="M16.3175 13.5376H31.1975C31.7065 16.3299 31.5688 19.2018 30.795 21.9326C30.0831 24.4438 28.7002 26.7135 26.795 28.4976C25.1225 27.1926 23.4425 25.8976 21.77 24.5926C22.5992 24.0333 23.3069 23.3123 23.8508 22.4729C24.3946 21.6335 24.7634 20.693 24.935 19.7076H16.3175C16.315 17.6526 16.3175 15.5951 16.3175 13.5376Z" fill="#587DBD"/>
<path d="M2.1875 23.6001C3.91583 22.2667 5.64333 20.9267 7.37 19.5801C8.03802 21.5406 9.30851 23.2398 11 24.4351C12.055 25.1807 13.2538 25.6984 14.52 25.9551C15.7676 26.1871 17.0474 26.1871 18.295 25.9551C19.539 25.7445 20.7252 25.2762 21.7775 24.5801C23.45 25.8851 25.13 27.1801 26.8025 28.4851C24.9722 30.1494 22.7411 31.3098 20.3275 31.8526C17.6635 32.4788 14.8873 32.4488 12.2375 31.7651C10.1418 31.2055 8.18419 30.2191 6.4875 28.8676C4.69165 27.4418 3.22489 25.645 2.1875 23.6001Z" fill="#319F43"/>
</g>
<defs>
<clipPath id="clip0_358_3610">
<rect width="32" height="32" fill="white" transform="translate(0 0.5)"/>
</clipPath>
</defs>
</svg>
