<svg width="50" height="30" viewBox="0 0 50 30" fill="none" xmlns="http://www.w3.org/2000/svg">
<g clip-path="url(#clip0_802_1830)">
<path fill-rule="evenodd" clip-rule="evenodd" d="M36 22H16C12.1 22 9 18.9 9 15C9 11.1 12.1 8 16 8H36C39.9 8 43 11.1 43 15C43 18.9 39.9 22 36 22Z" fill="#3C3C43" fill-opacity="0.3"/>
<g filter="url(#filter0_dd_802_1830)">
<path fill-rule="evenodd" clip-rule="evenodd" d="M17 25C22.5228 25 27 20.5228 27 15C27 9.47715 22.5228 5 17 5C11.4772 5 7 9.47715 7 15C7 20.5228 11.4772 25 17 25Z" fill="white"/>
<path d="M26.75 15C26.75 20.3848 22.3848 24.75 17 24.75C11.6152 24.75 7.25 20.3848 7.25 15C7.25 9.61522 11.6152 5.25 17 5.25C22.3848 5.25 26.75 9.61522 26.75 15Z" stroke="url(#paint0_linear_802_1830)" stroke-width="0.5"/>
<path d="M26.75 15C26.75 20.3848 22.3848 24.75 17 24.75C11.6152 24.75 7.25 20.3848 7.25 15C7.25 9.61522 11.6152 5.25 17 5.25C22.3848 5.25 26.75 9.61522 26.75 15Z" stroke="url(#paint1_linear_802_1830)" stroke-width="0.5"/>
</g>
</g>
<defs>
<filter id="filter0_dd_802_1830" x="5" y="4" width="24" height="24" filterUnits="userSpaceOnUse" color-interpolation-filters="sRGB">
<feFlood flood-opacity="0" result="BackgroundImageFix"/>
<feColorMatrix in="SourceAlpha" type="matrix" values="0 0 0 0 0 0 0 0 0 0 0 0 0 0 0 0 0 0 127 0" result="hardAlpha"/>
<feOffset dy="1"/>
<feGaussianBlur stdDeviation="1"/>
<feColorMatrix type="matrix" values="0 0 0 0 0 0 0 0 0 0 0 0 0 0 0 0 0 0 0.2 0"/>
<feBlend mode="normal" in2="BackgroundImageFix" result="effect1_dropShadow_802_1830"/>
<feColorMatrix in="SourceAlpha" type="matrix" values="0 0 0 0 0 0 0 0 0 0 0 0 0 0 0 0 0 0 127 0" result="hardAlpha"/>
<feOffset dy="0.1"/>
<feGaussianBlur stdDeviation="0.15"/>
<feColorMatrix type="matrix" values="0 0 0 0 0 0 0 0 0 0 0 0 0 0 0 0 0 0 0.1 0"/>
<feBlend mode="normal" in2="effect1_dropShadow_802_1830" result="effect2_dropShadow_802_1830"/>
<feBlend mode="normal" in="SourceGraphic" in2="effect2_dropShadow_802_1830" result="shape"/>
</filter>
<linearGradient id="paint0_linear_802_1830" x1="7.09786" y1="5" x2="7.09786" y2="24.8043" gradientUnits="userSpaceOnUse">
<stop stop-opacity="0.01"/>
<stop offset="0.8" stop-opacity="0.02"/>
<stop offset="1" stop-opacity="0.04"/>
</linearGradient>
<linearGradient id="paint1_linear_802_1830" x1="7" y1="5" x2="7" y2="25" gradientUnits="userSpaceOnUse">
<stop stop-color="white" stop-opacity="0.12"/>
<stop offset="0.2" stop-color="white" stop-opacity="0.06"/>
<stop offset="1" stop-color="white" stop-opacity="0.01"/>
</linearGradient>
<clipPath id="clip0_802_1830">
<rect width="50" height="30" fill="white"/>
</clipPath>
</defs>
</svg>
