<svg width="16" height="16" viewBox="0 0 16 16" fill="none" xmlns="http://www.w3.org/2000/svg">
<path d="M7.34966 5.04683L7.20099 5.6535H6.48699L6.41899 5.65816C6.29929 5.6746 6.18959 5.73382 6.11017 5.82488C6.03075 5.91593 5.987 6.03267 5.98699 6.1535L5.99166 6.2215C6.00809 6.3412 6.06731 6.4509 6.15837 6.53032C6.24943 6.60973 6.36617 6.65349 6.48699 6.6535H6.95566L6.69699 7.71083L6.16633 7.7115L6.09833 7.71616C5.97862 7.7326 5.86892 7.79182 5.7895 7.88288C5.71009 7.97393 5.66633 8.09067 5.66633 8.2115L5.67099 8.2795C5.68742 8.3992 5.74665 8.5089 5.83771 8.58832C5.92876 8.66773 6.0455 8.71149 6.16633 8.7115H6.45233L6.37033 9.04883L6.35833 9.1155C6.34568 9.23581 6.37708 9.35662 6.44671 9.45555C6.51634 9.55448 6.61947 9.6248 6.73699 9.6535L6.80366 9.6655C6.92397 9.67814 7.04478 9.64674 7.14371 9.57711C7.24264 9.50748 7.31297 9.40435 7.34166 9.28683L7.48166 8.71083H8.50766L8.42899 9.05616L8.41833 9.12283C8.40738 9.24338 8.44054 9.36381 8.51165 9.46176C8.58275 9.55972 8.68698 9.62856 8.80499 9.6555L8.87166 9.66616C8.99221 9.67711 9.11263 9.64395 9.21059 9.57284C9.30855 9.50173 9.37738 9.3975 9.40433 9.2795L9.53366 8.71083L10.1603 8.7115L10.2283 8.70683C10.3481 8.69055 10.458 8.63139 10.5376 8.54031C10.6171 8.44924 10.661 8.33242 10.661 8.2115L10.6563 8.1435C10.6399 8.02379 10.5807 7.91409 10.4896 7.83467C10.3986 7.75526 10.2818 7.7115 10.161 7.7115H9.76299L10.005 6.6535H10.485L10.553 6.64883C10.6727 6.6324 10.7824 6.57318 10.8618 6.48212C10.9412 6.39106 10.985 6.27432 10.985 6.1535L10.9803 6.08616C10.964 5.96634 10.9049 5.85648 10.8138 5.77693C10.7227 5.69737 10.6059 5.65352 10.485 5.6535H10.2343L10.321 5.2775L10.3317 5.21083C10.3424 5.09039 10.3092 4.97012 10.2381 4.87231C10.167 4.77449 10.0629 4.70576 9.94499 4.67883L9.87833 4.66816C9.75789 4.65739 9.63762 4.69062 9.53981 4.76172C9.44199 4.83281 9.37325 4.93694 9.34633 5.05483L9.20833 5.6535H8.22966L8.32033 5.28483L8.33233 5.21816C8.34618 5.09174 8.31133 4.96478 8.23488 4.86314C8.15842 4.7615 8.04611 4.69282 7.9208 4.67107C7.79549 4.64932 7.6666 4.67614 7.56037 4.74608C7.45414 4.81601 7.37855 4.9238 7.34899 5.0475M7.98499 6.65416H8.97833L8.73699 7.7115H7.72699L7.98499 6.65416ZM4.33366 1.3335C3.89163 1.3335 3.46771 1.50909 3.15515 1.82165C2.84259 2.13421 2.66699 2.55814 2.66699 3.00016V13.0002C2.66699 13.4422 2.84259 13.8661 3.15515 14.1787C3.46771 14.4912 3.89163 14.6668 4.33366 14.6668H13.167C13.2996 14.6668 13.4268 14.6142 13.5205 14.5204C13.6143 14.4266 13.667 14.2994 13.667 14.1668C13.667 14.0342 13.6143 13.907 13.5205 13.8133C13.4268 13.7195 13.2996 13.6668 13.167 13.6668H4.33366C4.15685 13.6668 3.98728 13.5966 3.86225 13.4716C3.73723 13.3465 3.66699 13.177 3.66699 13.0002H13.167C13.2996 13.0002 13.4268 12.9475 13.5205 12.8537C13.6143 12.7599 13.667 12.6328 13.667 12.5002V3.00016C13.667 2.78129 13.6239 2.56457 13.5401 2.36236C13.4564 2.16015 13.3336 1.97642 13.1788 1.82165C13.0241 1.66689 12.8403 1.54412 12.6381 1.46036C12.4359 1.37661 12.2192 1.3335 12.0003 1.3335H4.33366ZM12.667 12.0002H3.66699V3.00016C3.66699 2.82335 3.73723 2.65378 3.86225 2.52876C3.98728 2.40373 4.15685 2.3335 4.33366 2.3335H12.0003C12.1771 2.3335 12.3467 2.40373 12.4717 2.52876C12.5968 2.65378 12.667 2.82335 12.667 3.00016V12.0002Z" fill="#AB0909"/>
</svg>
