<svg width="16" height="16" viewBox="0 0 16 16" fill="none" xmlns="http://www.w3.org/2000/svg">
<path d="M5.33366 6.66683H10.667M5.33366 12.0002H10.667M5.33366 9.3335H8.00033M2.66699 14.2668V1.7335C2.66699 1.62741 2.70913 1.52567 2.78415 1.45065C2.85916 1.37564 2.96091 1.3335 3.06699 1.3335H10.835C10.941 1.33359 11.0427 1.37579 11.1177 1.45083L13.2163 3.5495C13.2536 3.58676 13.2832 3.63104 13.3034 3.67978C13.3235 3.72852 13.3338 3.78076 13.3337 3.8335V14.2668C13.3337 14.3194 13.3233 14.3714 13.3032 14.4199C13.2831 14.4684 13.2536 14.5125 13.2165 14.5497C13.1794 14.5868 13.1353 14.6163 13.0867 14.6364C13.0382 14.6565 12.9862 14.6668 12.9337 14.6668H3.06699C3.01446 14.6668 2.96245 14.6565 2.91392 14.6364C2.86539 14.6163 2.82129 14.5868 2.78415 14.5497C2.74701 14.5125 2.71754 14.4684 2.69744 14.4199C2.67734 14.3714 2.66699 14.3194 2.66699 14.2668Z" stroke="#AB0909" stroke-linecap="round" stroke-linejoin="round"/>
<path d="M10.667 1.3335V3.60016C10.667 3.70625 10.7091 3.80799 10.7841 3.88301C10.8592 3.95802 10.9609 4.00016 11.067 4.00016H13.3337" stroke="#AB0909" stroke-linecap="round" stroke-linejoin="round"/>
</svg>
