<svg width="16" height="16" viewBox="0 0 16 16" fill="none" xmlns="http://www.w3.org/2000/svg">
<path d="M6.73513 11.371C6.71075 11.4678 6.10138 13.7497 2.74951 13.7497C2.6169 13.7497 2.48972 13.697 2.39595 13.6033C2.30218 13.5095 2.24951 13.3823 2.24951 13.2497C2.24951 9.89783 4.53138 9.28845 4.62826 9.26408C4.75697 9.23192 4.89318 9.25221 5.00694 9.32049C5.12069 9.38876 5.20266 9.49943 5.23482 9.62814C5.26698 9.75685 5.24668 9.89307 5.17841 10.0068C5.11013 10.1206 4.99947 10.2025 4.87076 10.2347C4.81451 10.2503 3.46951 10.6435 3.27326 12.726C5.35576 12.5297 5.74951 11.1872 5.76576 11.1247C5.79891 10.9962 5.88177 10.886 5.99611 10.8186C6.11044 10.7511 6.2469 10.7319 6.37544 10.765C6.50399 10.7982 6.6141 10.881 6.68156 10.9954C6.74901 11.1097 6.76828 11.2462 6.73513 11.3747V11.371ZM12.5476 7.15845L12.2495 7.45658V11.1022C12.2502 11.234 12.2248 11.3647 12.1746 11.4866C12.1243 11.6085 12.0504 11.7192 11.957 11.8122L9.81201 13.956C9.7195 14.0491 9.60947 14.123 9.48826 14.1735C9.36704 14.2239 9.23704 14.2498 9.10575 14.2497C8.99741 14.2497 8.88977 14.2322 8.78701 14.1978C8.61056 14.1395 8.45396 14.0329 8.3349 13.8902C8.21584 13.7475 8.13906 13.5744 8.11326 13.3903L7.77763 10.9847L5.01451 8.22158L2.61013 7.88595C2.42584 7.86011 2.25243 7.78335 2.10938 7.66432C1.96634 7.54529 1.85935 7.38871 1.80044 7.21219C1.74154 7.03567 1.73306 6.84621 1.77595 6.66513C1.81885 6.48406 1.91142 6.31854 2.04326 6.1872L4.18701 4.0422C4.28005 3.94882 4.39074 3.87487 4.51263 3.82465C4.63452 3.77444 4.76518 3.74896 4.89701 3.7497H8.54263L8.84076 3.45158C10.5083 1.7847 12.5176 1.71283 13.3039 1.7597C13.5477 1.77452 13.7776 1.87805 13.9503 2.05076C14.123 2.22346 14.2266 2.45341 14.2414 2.6972C14.287 3.48158 14.2151 5.49095 12.5483 7.15845H12.5476ZM2.74951 6.89595L5.07138 7.2197L7.54263 4.7497H4.89701L2.74951 6.89595ZM5.95701 7.7497L8.24951 10.0422L11.8401 6.45158C12.324 5.97095 12.6994 5.39232 12.9411 4.75456C13.1828 4.1168 13.2852 3.43469 13.2414 2.75408C12.5611 2.71189 11.8797 2.81535 11.2426 3.05753C10.6055 3.29971 10.0275 3.67504 9.547 4.15845L5.95701 7.7497ZM11.2495 8.45658L8.77888 10.9272L9.10388 13.2497L11.2495 11.1022V8.45658Z" fill="#AB0909"/>
</svg>
