<svg width="200" height="201" viewBox="0 0 200 201" fill="none" xmlns="http://www.w3.org/2000/svg">
<path d="M99.9076 44.1667C104.583 44.1667 109.233 47.1167 112.774 53.0167L162.041 135.133C169.133 146.925 163.658 156.575 149.908 156.575H49.9076C36.1576 156.575 30.6826 146.917 37.7742 135.133L87.0409 53.0167C90.5826 47.1167 95.2326 44.1667 99.9076 44.1667ZM99.9076 27.5C89.1076 27.5 79.2242 33.6667 72.7492 44.425L23.4826 126.558C16.9326 137.467 16.2159 149.1 21.5242 158.475C26.8326 167.85 37.1826 173.242 49.9076 173.242H149.908C162.633 173.242 172.991 167.858 178.291 158.483C183.591 149.108 182.883 137.475 176.333 126.567L127.066 44.45C120.591 33.6667 110.708 27.5 99.9076 27.5Z" fill="#AB0909"/>
<path d="M99.9076 142.408C105.891 142.408 110.741 137.558 110.741 131.575C110.741 125.592 105.891 120.742 99.9076 120.742C93.9245 120.742 89.0742 125.592 89.0742 131.575C89.0742 137.558 93.9245 142.408 99.9076 142.408Z" fill="#AB0909"/>
<path d="M112.407 81.5752C112.407 74.6585 106.816 69.0752 99.9074 69.0752C97.8621 69.0776 95.8487 69.5818 94.0437 70.5435C92.2387 71.5053 90.6973 72.8953 89.5546 74.5916C88.412 76.2879 87.703 78.2387 87.4899 80.2728C87.2768 82.3069 87.5661 84.3623 88.3324 86.2585C92.9491 97.7252 99.9074 114.909 99.9074 114.909L111.499 86.2585C112.066 84.8169 112.407 83.2335 112.407 81.5752Z" fill="#AB0909"/>
</svg>
